<?xml version="1.0" standalone="no"?>
<!DOCTYPE svg PUBLIC "-//W3C//DTD SVG 20010904//EN"
 "http://www.w3.org/TR/2001/REC-SVG-20010904/DTD/svg10.dtd">
<svg version="1.0" xmlns="http://www.w3.org/2000/svg"
 width="512.000000pt" height="512.000000pt" viewBox="0 0 512.000000 512.000000"
 preserveAspectRatio="xMidYMid meet">

<g transform="translate(0.000000,512.000000) scale(0.100000,-0.100000)"
fill="#000000" stroke="none">
<path d="M2503 5100 c-36 -22 -32 -16 -138 -205 -230 -410 -500 -792 -845
-1195 -296 -347 -824 -841 -1088 -1016 -79 -53 -100 -109 -66 -179 9 -19 28
-42 42 -51 149 -96 490 -392 737 -639 476 -476 897 -1028 1213 -1590 120 -214
126 -220 195 -220 74 0 86 13 187 192 262 463 603 938 959 1333 295 327 705
704 974 894 67 48 97 86 97 126 0 53 -29 87 -161 190 -488 379 -930 833 -1331
1364 -194 257 -427 619 -567 879 -72 134 -129 166 -208 117z"/>
</g>
</svg>
