<?xml version="1.0" standalone="no"?>
<!DOCTYPE svg PUBLIC "-//W3C//DTD SVG 20010904//EN"
 "http://www.w3.org/TR/2001/REC-SVG-20010904/DTD/svg10.dtd">
<svg version="1.0" xmlns="http://www.w3.org/2000/svg"
 width="512.000000pt" height="512.000000pt" viewBox="0 0 512.000000 512.000000"
 preserveAspectRatio="xMidYMid meet">

<g transform="translate(0.000000,512.000000) scale(0.100000,-0.100000)"
fill="#000000" stroke="none">
<path d="M3065 5108 c-416 -42 -824 -237 -1125 -538 -653 -653 -729 -1688
-177 -2425 32 -43 62 -85 65 -93 3 -9 -50 -69 -138 -157 l-144 -144 -72 69
c-78 74 -112 88 -181 75 -34 -6 -110 -78 -647 -613 -651 -650 -654 -653 -641
-735 6 -38 28 -63 254 -288 225 -226 250 -248 288 -254 82 -13 85 -10 735 641
535 537 607 613 613 647 13 68 -1 103 -71 176 -35 38 -64 71 -64 75 0 9 280
286 289 286 5 0 30 -17 57 -39 485 -383 1145 -498 1734 -302 402 134 734 389
972 746 219 330 333 769 299 1158 -22 255 -75 452 -181 673 -339 703 -1086
1121 -1865 1042z m265 -610 c54 -37 75 -73 75 -128 0 -54 -21 -91 -73 -126
-23 -16 -53 -23 -124 -28 -315 -22 -584 -176 -754 -432 -95 -143 -144 -294
-160 -487 -7 -95 -24 -132 -76 -171 -43 -31 -116 -27 -163 8 -56 43 -69 83
-62 196 14 228 85 437 215 635 62 93 213 248 311 319 200 143 462 233 692 235
74 1 91 -2 119 -21z"/>
</g>
</svg>
